<svg width="27" height="25" viewBox="0 0 27 25" fill="none" xmlns="http://www.w3.org/2000/svg">
<path d="M11.25 16.75H5.25C4.00734 16.75 3 17.7578 3 19C3 19.4125 3.33562 19.75 3.75 19.75H12.75C13.1642 19.75 13.5 19.4142 13.5 19C13.5 17.7578 12.4922 16.75 11.25 16.75ZM11.25 12.25C11.25 10.5934 9.90703 9.25 8.25 9.25C6.59297 9.25 5.25 10.5934 5.25 12.25C5.25 13.9066 6.59297 15.25 8.25 15.25C9.90703 15.25 11.25 13.9047 11.25 12.25ZM24.75 1.75H2.25C1.00734 1.75 0 2.75734 0 4V6.25H27V4C27 2.75734 25.9922 1.75 24.75 1.75Z" fill="#407BFF"/>
<path opacity="0.4" d="M0 6.25V20.5C0 21.7422 1.00734 22.75 2.25 22.75H24.75C25.9927 22.75 27 21.7427 27 20.5V6.25H0ZM8.25 9.25C9.90703 9.25 11.25 10.5934 11.25 12.25C11.25 13.9066 9.90703 15.25 8.25 15.25C6.59297 15.25 5.25 13.9066 5.25 12.25C5.25 10.5934 6.59531 9.25 8.25 9.25ZM12.75 19.75H3.75C3.33562 19.75 3 19.4125 3 19C3 17.7578 4.00734 16.75 5.25 16.75H11.25C12.4927 16.75 13.5 17.7573 13.5 19C13.5 19.4125 13.1625 19.75 12.75 19.75ZM23.25 16.75H17.25C16.8358 16.75 16.5 16.4142 16.5 16C16.5 15.5858 16.8358 15.25 17.25 15.25H23.25C23.6642 15.25 24 15.5858 24 16C24 16.4142 23.6625 16.75 23.25 16.75ZM23.25 13.75H17.25C16.8375 13.75 16.5 13.4125 16.5 13C16.5 12.5875 16.8375 12.25 17.25 12.25H23.25C23.6625 12.25 24 12.5875 24 13C24 13.4125 23.6625 13.75 23.25 13.75ZM23.25 10.75H17.25C16.8375 10.75 16.5 10.4125 16.5 10C16.5 9.5875 16.8375 9.25 17.25 9.25H23.25C23.6625 9.25 24 9.5875 24 10C24 10.4125 23.6625 10.75 23.25 10.75Z" fill="#407BFF"/>
<rect x="2" y="7.25" width="22" height="14" fill="#B3CAFF"/>
<path d="M23.5 10.25H4" stroke="white" stroke-width="1.6" stroke-linecap="round"/>
<path d="M23.5 13.25H4" stroke="white" stroke-width="1.6" stroke-linecap="round"/>
<path d="M23.5 16.25H4" stroke="white" stroke-width="1.6" stroke-linecap="round"/>
</svg>
