<svg width="16" height="16" viewBox="0 0 16 16" fill="none" xmlns="http://www.w3.org/2000/svg">
<circle cx="8.0001" cy="7.99998" r="6.4" fill="#E2101B"/>
<path d="M8.46995 5.33276L8.38995 9.05837H7.60934L7.53176 5.33276H8.46995ZM7.99964 10.6661C7.85257 10.6661 7.72651 10.6111 7.62146 10.5012C7.51803 10.3913 7.46631 10.2573 7.46631 10.0993C7.46631 9.94468 7.51803 9.81242 7.62146 9.70249C7.72651 9.59256 7.85257 9.53759 7.99964 9.53759C8.14348 9.53759 8.26793 9.59256 8.37298 9.70249C8.47964 9.81242 8.53298 9.94468 8.53298 10.0993C8.53298 10.204 8.50793 10.2994 8.45782 10.3853C8.40934 10.4711 8.34469 10.5398 8.26388 10.5914C8.18469 10.6412 8.09661 10.6661 7.99964 10.6661Z" fill="white"/>
</svg>
