<svg width="119" height="36" viewBox="0 0 119 36" fill="none" xmlns="http://www.w3.org/2000/svg">
<rect x="2.5" y="2" width="32" height="32" rx="3.95703" fill="#4597FF"/>
<path d="M12.7939 26.3209C11.9516 26.3209 11.1887 26.1134 10.5051 25.6984C9.83373 25.2833 9.30273 24.6852 8.91211 23.904C8.52148 23.1105 8.32617 22.1767 8.32617 21.1025C8.32617 19.247 8.7229 17.5319 9.51635 15.9572C10.3098 14.3703 11.4817 13.1008 13.032 12.1487C14.5822 11.1843 16.4438 10.7021 18.6166 10.7021C19.1781 10.7021 19.7763 10.7449 20.4111 10.8303C21.058 10.9158 21.644 11.0439 22.1689 11.2148C22.5106 11.3125 22.6815 11.5566 22.6815 11.9473C22.6815 12.2646 22.5595 12.5637 22.3153 12.8445C22.0834 13.1252 21.8087 13.2656 21.4914 13.2656C21.3937 13.2656 21.3205 13.2595 21.2716 13.2473C20.6369 13.1008 20.0937 12.9971 19.642 12.936C19.1904 12.8628 18.7143 12.8262 18.2138 12.8262C16.6635 12.8262 15.3452 13.2046 14.2587 13.9614C13.1723 14.706 12.3606 15.6948 11.8235 16.9277C11.2864 18.1606 11.0178 19.4912 11.0178 20.9194C11.0178 21.957 11.2192 22.7626 11.622 23.3363C12.0371 23.8979 12.5742 24.1786 13.2334 24.1786C13.978 24.1786 14.6311 23.8734 15.1926 23.2631C15.7541 22.6528 16.2668 21.664 16.7307 20.2968C17.1945 18.9296 17.6523 17.0742 18.1039 14.7304C18.1772 14.3886 18.3237 14.1567 18.5434 14.0346C18.7631 13.9126 19.0561 13.8515 19.4223 13.8515C20.289 13.8515 20.7223 14.1323 20.7223 14.6938C20.7223 14.7915 20.704 14.9135 20.6674 15.06C20.35 16.2441 20.057 17.5564 19.7885 18.9968C19.5322 20.425 19.404 21.5114 19.404 22.256C19.404 22.9152 19.5016 23.3974 19.6969 23.7025C19.8923 23.9955 20.1913 24.142 20.5942 24.142C20.9848 24.142 21.3571 24.0138 21.7111 23.7575C22.0651 23.4889 22.5106 23.0373 23.0478 22.4025C23.1942 22.2316 23.359 22.1462 23.5421 22.1462C23.7008 22.1462 23.8229 22.2194 23.9083 22.3659C24.006 22.5124 24.0548 22.7138 24.0548 22.9701C24.0548 23.4462 23.9389 23.8246 23.7069 24.1054C23.1088 24.8256 22.5229 25.3749 21.9491 25.7533C21.3754 26.1317 20.6735 26.3209 19.8434 26.3209C18.9889 26.3209 18.2992 26.0768 17.7744 25.5885C17.2495 25.088 16.9199 24.3861 16.7856 23.4828C15.8823 25.3749 14.5517 26.3209 12.7939 26.3209Z" fill="#F7F7F9"/>
<path d="M27.1277 26.3209C26.5906 26.3209 26.1816 26.1745 25.9009 25.8815C25.6323 25.5885 25.4981 25.204 25.4981 24.7279C25.4981 24.1786 25.6506 23.7392 25.9558 23.4096C26.2732 23.08 26.7127 22.9152 27.2742 22.9152C27.8113 22.9152 28.2141 23.0495 28.4827 23.318C28.7634 23.5744 28.9038 23.9589 28.9038 24.4716C28.9038 25.0331 28.7451 25.4848 28.4277 25.8266C28.1103 26.1561 27.677 26.3209 27.1277 26.3209Z" fill="#F7F7F9"/>
<path d="M52.6307 23.1447H44.9567L43.6382 26.7702H40.5L47.0664 9H50.5474L57.1138 26.7702H53.9493L52.6307 23.1447ZM51.7869 20.7702L48.8069 12.5234L45.8006 20.7702H51.7869Z" fill="#4597FF"/>
<path d="M58.9668 19.7234C58.9668 18.2766 59.2657 17.0085 59.8634 15.9191C60.4788 14.8128 61.3226 13.9617 62.3951 13.366C63.4675 12.7702 64.6981 12.4723 66.087 12.4723C67.8451 12.4723 69.2955 12.8809 70.4383 13.6979C71.5986 14.4979 72.3809 15.6468 72.7853 17.1447H69.5416C69.2779 16.4468 68.856 15.9021 68.2758 15.5106C67.6957 15.1191 66.9661 14.9234 66.087 14.9234C64.8564 14.9234 63.8718 15.3489 63.1334 16.2C62.4126 17.034 62.0522 18.2085 62.0522 19.7234C62.0522 21.2383 62.4126 22.4213 63.1334 23.2723C63.8718 24.1234 64.8564 24.5489 66.087 24.5489C67.8275 24.5489 68.9791 23.8085 69.5416 22.3277H72.7853C72.3634 23.7574 71.5722 24.8979 70.4119 25.7489C69.2516 26.583 67.8099 27 66.087 27C64.6981 27 63.4675 26.7021 62.3951 26.1064C61.3226 25.4936 60.4788 24.6426 59.8634 23.5532C59.2657 22.4468 58.9668 21.1702 58.9668 19.7234Z" fill="#4597FF"/>
<path d="M93.3709 12.4723C94.5136 12.4723 95.5333 12.7021 96.4299 13.1617C97.3441 13.6213 98.0561 14.3021 98.566 15.2043C99.0934 16.1064 99.3571 17.1957 99.3571 18.4723V26.7702H96.3772V18.9064C96.3772 17.6468 96.0519 16.6851 95.4014 16.0213C94.7509 15.3404 93.8631 15 92.7379 15C91.6128 15 90.7162 15.3404 90.0481 16.0213C89.3976 16.6851 89.0724 17.6468 89.0724 18.9064V26.7702H86.0924V18.9064C86.0924 17.6468 85.7672 16.6851 85.1167 16.0213C84.4662 15.3404 83.5784 15 82.4532 15C81.328 15 80.4314 15.3404 79.7633 16.0213C79.1129 16.6851 78.7876 17.6468 78.7876 18.9064V26.7702H75.7813V12.7021H78.7876V14.3106C79.2799 13.7319 79.904 13.2809 80.66 12.9574C81.4159 12.634 82.2247 12.4723 83.0861 12.4723C84.2464 12.4723 85.2837 12.7106 86.1979 13.1872C87.1121 13.6638 87.8153 14.3532 88.3076 15.2553C88.7471 14.4043 89.4328 13.7319 90.3645 13.2383C91.2963 12.7277 92.2984 12.4723 93.3709 12.4723Z" fill="#4597FF"/>
<path d="M116.5 19.3915C116.5 19.9191 116.465 20.3957 116.395 20.8213H105.292C105.38 21.9447 105.811 22.8468 106.584 23.5277C107.358 24.2085 108.307 24.5489 109.433 24.5489C111.05 24.5489 112.193 23.8936 112.861 22.583H116.104C115.665 23.8766 114.865 24.9404 113.705 25.7745C112.562 26.5915 111.138 27 109.433 27C108.044 27 106.795 26.7021 105.688 26.1064C104.598 25.4936 103.736 24.6426 103.103 23.5532C102.488 22.4468 102.18 21.1702 102.18 19.7234C102.18 18.2766 102.479 17.0085 103.077 15.9191C103.692 14.8128 104.545 13.9617 105.635 13.366C106.743 12.7702 108.008 12.4723 109.433 12.4723C110.804 12.4723 112.026 12.7617 113.098 13.3404C114.171 13.9191 115.006 14.7362 115.603 15.7915C116.201 16.8298 116.5 18.0298 116.5 19.3915ZM113.362 18.4723C113.344 17.4 112.949 16.5404 112.175 15.8936C111.402 15.2468 110.443 14.9234 109.301 14.9234C108.263 14.9234 107.376 15.2468 106.637 15.8936C105.899 16.5234 105.459 17.383 105.319 18.4723H113.362Z" fill="#4597FF"/>
</svg>
