<svg width="28" height="23" viewBox="0 0 28 23" fill="none" xmlns="http://www.w3.org/2000/svg">
<path d="M11.6667 16.0556H5.44444C4.15576 16.0556 3.11111 17.1007 3.11111 18.3889C3.11111 18.8167 3.45917 19.1667 3.88889 19.1667H13.2222C13.6518 19.1667 14 18.8184 14 18.3889C14 17.1007 12.9549 16.0556 11.6667 16.0556ZM11.6667 11.3889C11.6667 9.67099 10.274 8.2778 8.55556 8.2778C6.83715 8.2778 5.44444 9.67099 5.44444 11.3889C5.44444 13.1068 6.83715 14.5 8.55556 14.5C10.274 14.5 11.6667 13.1049 11.6667 11.3889ZM25.6667 0.500023H2.33333C1.04465 0.500023 0 1.54468 0 2.83336V5.16669H28V2.83336C28 1.54468 26.9549 0.500023 25.6667 0.500023Z" fill="#4597FF"/>
<path opacity="0.4" d="M0 5.16669V19.9445C0 21.2327 1.04465 22.2778 2.33333 22.2778H25.6667C26.9553 22.2778 28 21.2331 28 19.9445V5.16669H0ZM8.55556 8.2778C10.274 8.2778 11.6667 9.671 11.6667 11.3889C11.6667 13.1068 10.274 14.5 8.55556 14.5C6.83715 14.5 5.44444 13.1068 5.44444 11.3889C5.44444 9.671 6.83958 8.2778 8.55556 8.2778ZM13.2222 19.1667H3.88889C3.45917 19.1667 3.11111 18.8167 3.11111 18.3889C3.11111 17.1007 4.15576 16.0556 5.44444 16.0556H11.6667C12.9553 16.0556 14 17.1002 14 18.3889C14 18.8167 13.65 19.1667 13.2222 19.1667ZM24.1111 16.0556H17.8889C17.4594 16.0556 17.1111 15.7073 17.1111 15.2778C17.1111 14.8483 17.4594 14.5 17.8889 14.5H24.1111C24.5406 14.5 24.8889 14.8483 24.8889 15.2778C24.8889 15.7073 24.5389 16.0556 24.1111 16.0556ZM24.1111 12.9445H17.8889C17.4611 12.9445 17.1111 12.5945 17.1111 12.1667C17.1111 11.7389 17.4611 11.3889 17.8889 11.3889H24.1111C24.5389 11.3889 24.8889 11.7389 24.8889 12.1667C24.8889 12.5945 24.5389 12.9445 24.1111 12.9445ZM24.1111 9.83336H17.8889C17.4611 9.83336 17.1111 9.48336 17.1111 9.05558C17.1111 8.6278 17.4611 8.2778 17.8889 8.2778H24.1111C24.5389 8.2778 24.8889 8.6278 24.8889 9.05558C24.8889 9.48336 24.5389 9.83336 24.1111 9.83336Z" fill="#4597FF"/>
</svg>
