<svg width="54" height="54" viewBox="0 0 54 54" fill="none" xmlns="http://www.w3.org/2000/svg">
<g clip-path="url(#clip0_895_1026)">
<path d="M39.2268 18.3036C40.3694 19.4462 40.3694 21.3121 39.2268 22.4547L25.8091 35.8723C24.6665 37.0149 22.8007 37.0149 21.6581 35.8723L14.9492 29.1635C13.8066 28.0209 13.8066 26.155 14.9492 25.0124C16.0918 23.8698 17.9577 23.8698 19.1003 25.0124L23.7336 29.6457L35.0757 18.3036C36.2183 17.161 38.0842 17.161 39.2268 18.3036Z" fill="#01B678"/>
<path opacity="0.4" d="M0.252686 27.0881C0.252686 12.2658 12.2657 0.252808 27.088 0.252808C41.9103 0.252808 53.9233 12.2658 53.9233 27.0881C53.9233 41.9104 41.9103 53.9234 27.088 53.9234C12.2657 53.9234 0.252686 41.9104 0.252686 27.0881ZM39.2268 22.4548C40.3694 21.3122 40.3694 19.4463 39.2268 18.3037C38.0842 17.1611 36.2183 17.1611 35.0757 18.3037L23.7336 29.6458L19.1003 25.0126C17.9577 23.87 16.0918 23.87 14.9492 25.0126C13.8066 26.1552 13.8066 28.0211 14.9492 29.1637L21.658 35.8725C22.8006 37.0151 24.6665 37.0151 25.8091 35.8725L39.2268 22.4548Z" fill="#01B678"/>
</g>
<defs>
<clipPath id="clip0_895_1026">
<rect width="53.6706" height="53.6706" fill="white" transform="translate(0.252686 0.252808)"/>
</clipPath>
</defs>
</svg>
