<svg width="27" height="27" viewBox="0 0 27 27" fill="none" xmlns="http://www.w3.org/2000/svg">
<path d="M3 14C3 7.92545 7.92545 3 14 3C20.0746 3 25 7.92545 25 14C25 20.0746 20.0746 25 14 25C7.92545 25 3 20.0746 3 14Z" fill="#DEF7EB"/>
<path fill-rule="evenodd" clip-rule="evenodd" d="M12.1105 16.2355C11.8441 16.5062 11.4059 16.5062 11.1395 16.2355L8.38945 13.4855C8.11875 13.2191 8.11875 12.7809 8.38945 12.5145C8.65586 12.2437 9.09414 12.2437 9.36055 12.5145L11.625 14.7789L16.6395 9.76445C16.9059 9.49375 17.3441 9.49375 17.6105 9.76445C17.8812 10.0309 17.8812 10.4691 17.6105 10.7355L12.1105 16.2355ZM24 13C24 19.0758 19.0758 24 13 24C6.92422 24 2 19.0758 2 13C2 6.92422 6.92422 2 13 2C19.0758 2 24 6.92422 24 13ZM13 3.375C7.68477 3.375 3.375 7.68477 3.375 13C3.375 18.3152 7.68477 22.625 13 22.625C18.3152 22.625 22.625 18.3152 22.625 13C22.625 7.68477 18.3152 3.375 13 3.375Z" fill="#01B678"/>
</svg>
