<svg width="22" height="30" viewBox="0 0 22 30" fill="none" xmlns="http://www.w3.org/2000/svg">
<g clip-path="url(#clip0_139_343)">
<path d="M12.6666 16.4375H9.33329C7.03225 16.4375 5.16663 18.3264 5.16663 20.6562C5.16663 21.1203 5.53954 21.5 5.99996 21.5H16C16.4602 21.5 16.8333 21.1222 16.8333 20.6562C16.8333 18.3254 14.9687 16.4375 12.6666 16.4375ZM11 14.75C12.8411 14.75 14.3333 13.2392 14.3333 11.375C14.3333 9.51084 12.8411 8 11 8C9.15881 8 7.66663 9.51348 7.66663 11.375C7.66663 13.2365 9.16142 14.75 11 14.75Z" fill="white"/>
<path opacity="0.4" d="M18.5 1.25H3.5C2.11927 1.25 1 2.38326 1 3.78125V25.7188C1 27.1162 2.11927 28.25 3.5 28.25H18.5C19.8807 28.25 21 27.1167 21 25.7188V3.78125C21 2.38326 19.8802 1.25 18.5 1.25ZM11 8C12.8411 8 14.3333 9.51084 14.3333 11.375C14.3333 13.2392 12.8411 14.75 11 14.75C9.15885 14.75 7.66667 13.2365 7.66667 11.375C7.66667 9.51348 9.16146 8 11 8ZM16 21.5H6C5.53979 21.5 5.16667 21.1222 5.16667 20.6562C5.16667 18.3254 7.03125 16.4375 9.33333 16.4375H12.6667C14.9677 16.4375 16.8333 18.3264 16.8333 20.6562C16.8333 21.1203 16.4583 21.5 16 21.5Z" fill="#407BFF"/>
</g>
<path d="M1 5.25V2.25C1 1.69772 1.44772 1.25 2 1.25H5" stroke="#407BFF" stroke-width="2" stroke-linecap="round"/>
<path d="M5 28.25L2 28.25C1.44772 28.25 1 27.8023 1 27.25L1 24.25" stroke="#407BFF" stroke-width="2" stroke-linecap="round"/>
<path d="M21 24.25L21 27.25C21 27.8023 20.5523 28.25 20 28.25L17 28.25" stroke="#407BFF" stroke-width="2" stroke-linecap="round"/>
<path d="M17 1.25L20 1.25C20.5523 1.25 21 1.69772 21 2.25L21 5.25" stroke="#407BFF" stroke-width="2" stroke-linecap="round"/>
<defs>
<clipPath id="clip0_139_343">
<rect width="20" height="27" fill="white" transform="translate(1 1.25)"/>
</clipPath>
</defs>
</svg>
