<svg width="14" height="16" viewBox="0 0 14 16" fill="none" xmlns="http://www.w3.org/2000/svg">
<path d="M12 0.854164C13.1031 0.854164 14 1.76813 14 2.89583V13.1042C14 14.2303 13.1031 15.1458 12 15.1458H2C0.895313 15.1458 0 14.2303 0 13.1042V2.89583C0 1.76813 0.895313 0.854164 2 0.854164H12ZM10.6187 6.58997C10.9594 6.24225 10.9594 5.67441 10.6187 5.32669C10.2781 4.97897 9.72188 4.97897 9.38125 5.32669L6 8.77838L4.61875 7.36836C4.27812 7.02064 3.72187 7.02064 3.38125 7.36836C3.03969 7.71608 3.03969 8.28392 3.38125 8.63164L5.38125 10.6733C5.72188 11.021 6.27812 11.021 6.61875 10.6733L10.6187 6.58997Z" fill="#4597FF"/>
</svg>
