<svg width="29" height="26" viewBox="0 0 29 26" fill="none" xmlns="http://www.w3.org/2000/svg">
<g clip-path="url(#clip0_139_217)">
<path d="M8.17612 2.09524V3.63492H14.3473V2.09524C14.3473 1.24504 15.0367 0.555554 15.8901 0.555554C16.7434 0.555554 17.4329 1.24504 17.4329 2.09524V3.63492H19.7471C21.0247 3.63492 22.0613 4.66891 22.0613 5.94444V9.79365H0.462158V5.94444C0.462158 4.66891 1.49824 3.63492 2.77635 3.63492H5.09054V2.09524C5.09054 1.24504 5.77997 0.555554 6.63333 0.555554C7.48669 0.555554 8.17612 1.24504 8.17612 2.09524ZM28.2324 18.2619C28.2324 22.0871 25.1227 25.1905 21.2899 25.1905C17.457 25.1905 14.3473 22.0871 14.3473 18.2619C14.3473 14.4368 17.457 11.3333 21.2899 11.3333C25.1227 11.3333 28.2324 14.4368 28.2324 18.2619ZM20.4751 15.1825V18.2619C20.4751 18.6853 20.8656 19.0317 21.2465 19.0317H23.6041C24.0283 19.0317 24.3754 18.6853 24.3754 18.2619C24.3754 17.8385 24.0283 17.4921 23.6041 17.4921H22.0179V15.1825C22.0179 14.7591 21.7141 14.4127 21.2465 14.4127C20.8656 14.4127 20.4751 14.7591 20.4751 15.1825Z" fill="#4597FF"/>
<path opacity="0.4" d="M12.8045 18.2619C12.8045 21.1247 14.2316 23.6556 16.4108 25.1905H2.77635C1.49824 25.1905 0.462158 24.156 0.462158 22.8809V9.79364H21.2899C16.6036 9.79364 12.8045 13.5851 12.8045 18.2619ZM22.0613 9.79364V9.82732C21.8057 9.80327 21.5502 9.79364 21.2899 9.79364H22.0613Z" fill="#4597FF"/>
</g>
<defs>
<clipPath id="clip0_139_217">
<rect width="27.7703" height="24.6349" fill="white" transform="translate(0.462158 0.555554)"/>
</clipPath>
</defs>
</svg>
