<svg width="120" height="119" viewBox="0 0 120 119" fill="none" xmlns="http://www.w3.org/2000/svg">
<path fill-rule="evenodd" clip-rule="evenodd" d="M117.201 59.5C117.201 91.0907 91.5915 116.7 60.0008 116.7C28.4101 116.7 2.80078 91.0907 2.80078 59.5C2.80078 27.9094 28.4101 2.30005 60.0008 2.30005C91.5915 2.30005 117.201 27.9094 117.201 59.5ZM119.201 59.5C119.201 92.1953 92.696 118.7 60.0008 118.7C27.3055 118.7 0.800781 92.1953 0.800781 59.5C0.800781 26.8048 27.3055 0.300049 60.0008 0.300049C92.696 0.300049 119.201 26.8048 119.201 59.5ZM42.3231 45.3579C41.7373 44.7721 41.7373 43.8224 42.3231 43.2366C42.9089 42.6508 43.8586 42.6508 44.4444 43.2366L59.6937 58.4858L74.9429 43.2366C75.5287 42.6508 76.4785 42.6508 77.0642 43.2366C77.65 43.8224 77.65 44.7721 77.0642 45.3579L61.815 60.6072L77.6785 76.4706C78.2642 77.0564 78.2642 78.0061 77.6785 78.5919C77.0927 79.1777 76.1429 79.1777 75.5571 78.5919L59.6937 62.7285L43.8302 78.5919C43.2444 79.1777 42.2947 79.1777 41.7089 78.5919C41.1231 78.0062 41.1231 77.0564 41.7089 76.4706L57.5724 60.6072L42.3231 45.3579Z" fill="#FFC209"/>
</svg>
