<svg width="54" height="54" viewBox="0 0 54 54" fill="none" xmlns="http://www.w3.org/2000/svg">
<g clip-path="url(#clip0_829_4444)">
<path opacity="0.4" d="M0.252686 27.088C0.252686 12.2657 12.2657 0.252686 27.088 0.252686C41.9103 0.252686 53.9233 12.2657 53.9233 27.088C53.9233 41.9103 41.9103 53.9233 27.088 53.9233C12.2657 53.9233 0.252686 41.9103 0.252686 27.088Z" fill="#ED3232"/>
<path d="M36.4078 20.4156C37.1887 19.6347 37.1887 18.3665 36.4078 17.5857C35.627 16.8048 34.3588 16.8048 33.5779 17.5857L26.9998 24.1701L20.4153 17.5919C19.6345 16.811 18.3663 16.811 17.5854 17.5919C16.8045 18.3728 16.8045 19.6409 17.5854 20.4218L24.1698 27L17.5917 33.5844C16.8108 34.3653 16.8108 35.6335 17.5917 36.4143C18.3725 37.1952 19.6407 37.1952 20.4216 36.4143L26.9998 29.8299L33.5842 36.4081C34.3651 37.189 35.6332 37.189 36.4141 36.4081C37.195 35.6272 37.195 34.359 36.4141 33.5782L29.8297 27L36.4078 20.4156Z" fill="#ED3232"/>
</g>
<defs>
<clipPath id="clip0_829_4444">
<rect width="53.6706" height="53.6706" fill="white" transform="translate(0.252686 0.252686)"/>
</clipPath>
</defs>
</svg>
