<svg width="24" height="26" viewBox="0 0 24 26" fill="none" xmlns="http://www.w3.org/2000/svg">
<path d="M3.42857 9.5V16.5H0V9.5H3.42857ZM24 9.5V16.5H20.5714V9.5H24ZM8.57143 25.25V21.75H15.4286V25.25H8.57143ZM8.57143 0.75H15.4286V4.25H8.57143V0.75Z" fill="#407BFF"/>
<path opacity="0.4" d="M5.14286 0.75H6.85714V4.25H5.14286C4.19625 4.25 3.42857 5.03203 3.42857 6V7.75H0V6C0 3.10047 2.3025 0.75 5.14286 0.75ZM5.14286 21.75H6.85714V25.25H5.14286C2.3025 25.25 0 22.8984 0 20V18.25H3.42857V20C3.42857 20.968 4.19625 21.75 5.14286 21.75ZM18.8571 25.25H17.1429V21.75H18.8571C19.8054 21.75 20.5714 20.968 20.5714 20V18.25H24V20C24 22.8984 21.6964 25.25 18.8571 25.25ZM24 7.75H20.5714V6C20.5714 5.03203 19.8054 4.25 18.8571 4.25H17.1429V0.75H18.8571C21.6964 0.75 24 3.10047 24 6V7.75Z" fill="#407BFF"/>
</svg>
